<?xml version="1.0" standalone="no"?>
<!DOCTYPE svg PUBLIC "-//W3C//DTD SVG 20010904//EN"
 "http://www.w3.org/TR/2001/REC-SVG-20010904/DTD/svg10.dtd">
<svg version="1.0" xmlns="http://www.w3.org/2000/svg"
 width="1000.000000pt" height="1000.000000pt" viewBox="0 0 1000.000000 1000.000000"
 preserveAspectRatio="xMidYMid meet">
<metadata>
Created by potrace 1.14, written by Peter Selinger 2001-2017
</metadata>
<g transform="translate(0.000000,1000.000000) scale(0.100000,-0.100000)"
fill="#000000" stroke="none">
<path d="M4885 9400 c-4 -6 -13 -9 -20 -6 -7 2 -21 -2 -32 -9 -10 -8 -27 -12
-38 -9 -11 2 -42 0 -70 -6 -27 -6 -68 -13 -90 -16 -22 -2 -46 -6 -53 -9 -8 -3
-55 -10 -105 -15 -111 -13 -170 -37 -192 -79 -9 -19 -23 -31 -36 -31 -52 0
-208 -63 -217 -88 -5 -16 30 -16 46 0 7 7 12 8 12 3 0 -13 -81 -86 -90 -80
-11 7 -90 -81 -90 -100 0 -9 -9 -19 -20 -22 -11 -3 -20 -12 -20 -20 0 -22 -52
-100 -75 -112 -11 -6 -33 -20 -50 -31 -16 -11 -36 -23 -42 -26 -7 -3 -13 -15
-13 -26 0 -10 -4 -16 -10 -13 -5 3 -21 -4 -34 -17 -41 -38 -54 -47 -81 -60
-16 -7 -21 -14 -14 -19 14 -9 3 -29 -17 -29 -8 0 -14 -4 -14 -10 0 -5 -7 -10
-15 -10 -8 0 -15 -7 -15 -15 0 -8 -11 -31 -25 -51 -14 -20 -25 -42 -25 -48 0
-6 -9 -17 -20 -24 -11 -7 -20 -21 -20 -32 0 -11 -7 -20 -15 -20 -19 0 -38 -36
-30 -60 4 -12 -2 -31 -14 -49 -11 -15 -17 -31 -13 -35 4 -4 -1 -12 -11 -17 -9
-6 -17 -15 -17 -20 0 -22 -41 -99 -60 -112 -12 -8 -18 -21 -15 -29 4 -9 -5
-22 -20 -34 -19 -14 -25 -28 -25 -56 0 -20 -4 -39 -9 -42 -10 -6 -29 -76 -34
-127 -3 -20 -7 -41 -11 -47 -3 -6 -2 -12 4 -14 6 -2 4 -24 -6 -58 -10 -36 -17
-119 -21 -245 -10 -316 -4 -422 23 -438 9 -5 12 -17 8 -31 -3 -14 2 -38 11
-57 10 -18 20 -53 22 -78 3 -25 9 -48 13 -51 5 -3 18 -57 30 -120 11 -63 25
-137 31 -165 9 -47 21 -210 20 -265 -3 -109 0 -164 10 -176 9 -12 9 -18 0 -27
-9 -9 -21 -7 -54 10 -23 12 -55 25 -72 29 -26 7 -28 6 -15 -7 8 -8 23 -18 33
-22 9 -3 17 -11 17 -18 0 -6 6 -9 14 -6 8 3 16 -2 19 -14 3 -10 13 -19 22 -19
28 0 75 -40 91 -78 13 -29 15 -59 11 -139 -4 -75 -3 -104 7 -112 19 -16 48 52
41 93 -4 17 3 137 15 266 21 222 23 429 6 560 -3 19 -10 94 -15 165 -6 72 -16
147 -22 167 -7 20 -9 55 -5 77 5 33 3 41 -9 41 -12 0 -14 4 -5 19 9 18 7 140
-3 158 -2 4 -2 24 0 43 2 19 5 62 7 95 4 72 30 173 50 189 7 6 17 29 21 51 9
52 51 108 76 102 24 -7 26 20 2 27 -10 3 1 3 23 0 37 -5 46 -1 80 30 40 37 98
60 140 54 17 -2 33 7 57 36 30 34 36 37 55 27 11 -6 30 -11 41 -11 13 0 21 -6
21 -16 0 -10 6 -14 15 -11 8 4 17 2 20 -3 3 -6 16 -5 31 0 14 6 59 10 100 10
43 0 74 4 74 10 0 6 7 10 15 10 8 0 15 -2 15 -4 0 -2 -7 -23 -15 -46 -14 -41
-20 -90 -10 -90 12 0 55 24 55 32 0 4 13 8 29 8 16 0 31 6 35 15 3 8 12 15 21
15 8 0 15 9 15 19 0 23 19 31 75 31 34 0 44 4 48 20 3 14 14 20 32 20 18 0 29
6 32 20 3 11 9 20 13 20 4 0 10 -9 13 -20 3 -11 10 -20 15 -20 5 0 12 9 15 20
3 13 0 20 -9 20 -8 0 -14 5 -14 11 0 6 7 8 16 5 9 -3 25 1 37 9 13 9 44 15 74
15 46 0 53 3 53 20 0 15 7 20 27 20 14 0 34 7 44 16 18 16 59 12 59 -7 0 -5 7
-9 15 -9 11 0 15 11 15 40 0 38 2 40 30 40 17 0 30 5 30 10 0 6 5 10 10 10 6
0 10 -14 10 -31 0 -27 2 -30 15 -19 11 9 19 9 28 2 9 -8 25 2 62 39 35 35 51
45 53 34 2 -10 15 -15 43 -15 28 0 39 -4 39 -15 0 -8 -6 -15 -13 -15 -9 0 -11
-12 -9 -40 3 -31 8 -40 23 -40 15 0 19 7 19 36 0 49 27 92 64 100 19 4 32 2
34 -5 7 -20 42 -13 42 9 0 17 7 20 40 20 33 0 40 -3 40 -20 0 -17 7 -20 40
-20 39 0 40 1 40 35 0 34 1 35 40 35 29 0 40 -4 40 -15 0 -12 16 -15 80 -15
73 0 80 -2 80 -20 0 -17 7 -20 39 -20 28 0 40 -5 43 -16 2 -11 12 -6 37 20
l35 36 -37 0 c-20 0 -37 5 -37 11 0 6 18 9 45 8 39 -3 49 1 78 29 38 37 45 38
62 15 17 -24 55 -27 56 -5 0 13 3 11 9 -6 5 -12 23 -30 40 -40 16 -9 30 -24
30 -32 0 -8 9 -21 20 -28 16 -9 20 -23 20 -62 0 -43 3 -50 20 -50 13 0 20 7
20 20 0 11 4 20 8 20 5 0 17 -9 27 -20 10 -11 29 -20 42 -20 23 0 24 -3 22
-46 -3 -42 0 -49 34 -80 20 -19 33 -34 28 -34 -5 0 -7 -9 -4 -20 4 -16 14 -20
44 -20 22 0 39 -4 39 -10 0 -5 18 -10 40 -10 30 0 40 4 40 16 0 14 3 14 15 4
8 -7 15 -25 15 -41 0 -26 26 -52 53 -54 4 0 12 -7 17 -15 7 -11 10 -12 10 -2
0 8 6 12 12 10 7 -3 13 -11 13 -19 0 -8 9 -24 20 -35 11 -12 29 -33 40 -48 11
-14 30 -37 43 -51 12 -15 22 -32 22 -39 0 -7 7 -28 16 -46 9 -18 19 -53 21
-79 2 -25 9 -55 15 -67 6 -14 6 -34 0 -60 -5 -21 -10 -77 -12 -124 -1 -47 -5
-87 -9 -90 -5 -3 -10 -24 -14 -47 -4 -33 -2 -43 9 -43 19 0 18 -35 -2 -54 -8
-9 -11 -16 -5 -16 7 0 11 -31 11 -85 0 -49 8 -120 20 -170 11 -48 20 -103 20
-123 -1 -135 0 -175 10 -242 34 -244 40 -305 40 -443 1 -146 2 -153 25 -179
27 -32 35 -34 35 -13 0 8 3 15 8 15 4 0 7 43 7 95 0 71 4 98 14 104 9 6 12 20
9 42 -3 19 -2 43 3 54 4 11 8 16 8 11 1 -5 8 -3 16 4 10 9 15 9 15 1 0 -6 5
-11 10 -11 6 0 10 7 10 15 0 11 7 14 25 9 18 -4 27 -1 31 11 14 37 98 105 129
105 9 0 14 4 10 9 -3 6 -18 6 -38 0 -59 -17 -62 -14 -62 48 -1 32 -4 87 -7
123 -9 88 26 295 65 390 9 23 15 50 34 145 3 17 12 38 21 47 9 11 18 51 23
105 4 48 11 89 16 90 8 3 8 109 -1 156 -5 25 8 39 16 17 2 -6 8 9 14 33 8 36
7 44 -3 40 -7 -3 -13 -1 -13 5 0 6 5 12 12 14 10 4 9 14 -2 49 -7 24 -17 48
-21 53 -4 5 -5 14 -2 21 2 8 0 22 -5 32 -15 29 -25 103 -14 103 6 0 13 -10 15
-22 3 -16 5 -12 6 12 2 30 4 32 12 15 7 -16 8 -14 4 9 -3 15 -9 42 -12 60 -3
17 -13 42 -21 54 -13 19 -13 25 -2 32 10 6 8 15 -9 44 -13 20 -27 36 -32 36
-5 0 -9 9 -9 20 0 11 -11 27 -24 36 -14 8 -28 29 -31 45 -4 17 -13 33 -21 36
-8 3 -14 13 -14 23 0 9 -14 33 -31 51 -16 19 -41 57 -53 84 -13 28 -35 76 -50
108 -15 31 -31 57 -37 57 -6 0 -8 9 -4 21 5 16 4 19 -6 14 -9 -6 -11 -3 -6 9
5 14 3 17 -8 12 -8 -3 -15 -1 -15 4 0 9 -147 160 -156 160 -10 0 -41 39 -56
73 -16 33 -27 42 -50 38 -5 0 -8 6 -8 14 0 8 -6 15 -12 15 -7 0 -20 5 -28 10
-13 9 -13 11 0 19 8 6 11 13 7 17 -3 4 -14 1 -23 -7 -16 -13 -17 -11 -10 16 3
17 3 25 -1 18 -6 -8 -21 4 -48 37 -42 51 -150 124 -200 136 -16 4 -42 13 -56
20 -23 11 -104 21 -250 29 -30 1 -141 55 -115 55 6 0 -5 11 -24 25 -19 14 -40
25 -47 25 -8 0 -41 18 -73 40 -32 22 -63 40 -68 40 -5 0 -16 7 -23 16 -17 21
-149 85 -160 78 -5 -3 -28 13 -52 36 -27 24 -54 40 -69 40 -13 0 -29 5 -34 10
-6 6 -25 14 -42 19 -24 7 -34 6 -40 -5 -6 -12 -17 -9 -62 13 -30 15 -66 31
-80 36 -14 5 -38 15 -53 23 -16 8 -35 14 -43 14 -8 0 -17 6 -20 14 -5 13 -46
24 -114 32 -14 1 -37 5 -51 9 -16 4 -29 2 -34 -5z m-1285 -830 c0 -5 -5 -10
-11 -10 -5 0 -7 5 -4 10 3 6 8 10 11 10 2 0 4 -4 4 -10z m3150 -94 c0 -3 -4
-8 -10 -11 -5 -3 -10 -1 -10 4 0 6 5 11 10 11 6 0 10 -2 10 -4z m-3120 -86 c0
-5 -7 -10 -16 -10 -8 0 -12 5 -9 10 3 6 10 10 16 10 5 0 9 -4 9 -10z m850
-490 c0 -5 -11 -10 -25 -10 -14 0 -25 5 -25 10 0 6 11 10 25 10 14 0 25 -4 25
-10z m2045 -80 c4 -6 -7 -10 -27 -9 -27 0 -30 2 -13 9 27 12 33 12 40 0z
m-2285 -42 c0 -35 -12 -30 -17 7 -2 14 1 25 7 25 5 0 10 -14 10 -32z m2927
-1310 c-3 -8 -6 -5 -6 6 -1 11 2 17 5 13 3 -3 4 -12 1 -19z"/>
<path d="M6000 8145 c0 -8 5 -15 10 -15 6 0 10 7 10 15 0 8 -4 15 -10 15 -5 0
-10 -7 -10 -15z"/>
<path d="M5680 7990 c0 -17 7 -20 40 -20 33 0 40 3 40 20 0 17 -7 20 -40 20
-33 0 -40 -3 -40 -20z"/>
<path d="M5600 7880 c0 -5 -18 -10 -40 -10 -38 0 -40 -2 -40 -30 0 -23 -4 -30
-20 -30 -17 0 -20 -7 -20 -39 0 -23 -5 -41 -12 -44 -10 -3 -10 -7 1 -20 19
-24 51 -22 51 3 0 17 7 20 50 20 l50 0 0 -40 0 -40 49 0 c34 0 51 -4 55 -15 3
-8 12 -15 21 -15 11 0 15 12 15 52 0 48 -4 56 -42 95 l-42 43 28 0 c21 0 27 4
24 18 -2 9 -13 21 -26 27 -12 5 -22 15 -22 22 0 8 -14 13 -40 13 -22 0 -40 -4
-40 -10z"/>
<path d="M4510 7830 c0 -11 5 -20 10 -20 6 0 10 9 10 20 0 11 -4 20 -10 20 -5
0 -10 -9 -10 -20z"/>
<path d="M5400 7770 c0 -33 3 -40 20 -40 17 0 20 7 20 40 0 33 -3 40 -20 40
-17 0 -20 -7 -20 -40z"/>
<path d="M5780 7770 c0 -29 4 -40 15 -40 11 0 15 11 15 40 0 29 -4 40 -15 40
-11 0 -15 -11 -15 -40z"/>
<path d="M5092 7778 c6 -18 28 -21 28 -4 0 9 -7 16 -16 16 -9 0 -14 -5 -12
-12z"/>
<path d="M3911 7744 c0 -11 3 -14 6 -6 3 7 2 16 -1 19 -3 4 -6 -2 -5 -13z"/>
<path d="M5440 7666 c0 -9 5 -16 10 -16 6 0 10 4 10 9 0 6 -4 13 -10 16 -5 3
-10 -1 -10 -9z"/>
<path d="M5063 7610 c0 -25 2 -35 4 -22 2 12 2 32 0 45 -2 12 -4 2 -4 -23z"/>
<path d="M5440 7540 l0 -70 -40 0 c-38 0 -40 -2 -40 -30 0 -21 5 -30 17 -30
15 0 15 -1 0 -18 -24 -26 -22 -62 3 -62 18 0 20 -7 20 -80 0 -73 2 -80 20 -80
11 0 20 -4 20 -10 0 -5 18 -10 40 -10 22 0 40 5 40 10 0 6 9 10 20 10 17 0 20
7 20 40 l0 40 60 0 c53 0 60 2 60 20 0 18 -7 20 -80 20 -47 0 -80 4 -80 10 0
6 -18 10 -40 10 -22 0 -40 4 -40 9 0 5 -7 11 -17 13 -15 3 -15 4 0 17 15 12
17 11 17 -3 0 -14 16 -16 120 -16 112 0 120 1 120 19 0 11 5 23 10 26 22 14
10 35 -20 35 -28 0 -30 2 -30 40 0 33 -3 40 -20 40 -15 0 -20 -7 -20 -29 0
-21 -6 -31 -22 -36 l-23 -8 23 -4 c38 -8 23 -37 -21 -41 -32 -3 -37 0 -37 17
0 12 -4 21 -10 21 -5 0 -10 18 -10 40 0 22 5 40 10 40 6 0 10 -11 10 -25 0
-18 5 -25 20 -25 15 0 20 7 20 25 0 17 6 25 17 25 12 0 6 11 -22 40 l-39 40
42 0 c35 0 42 3 42 20 0 18 -7 20 -80 20 l-80 0 0 -70z m80 -361 c0 -5 -18 -9
-40 -9 -48 0 -54 17 -7 22 36 4 47 1 47 -13z"/>
<path d="M4878 7563 c7 -3 16 -2 19 1 4 3 -2 6 -13 5 -11 0 -14 -3 -6 -6z"/>
<path d="M5328 7535 c-36 -31 -35 -45 2 -45 28 0 30 3 30 35 0 19 -1 35 -2 35
-2 0 -15 -12 -30 -25z"/>
<path d="M4937 7534 c-8 -8 1 -24 14 -24 5 0 9 7 9 15 0 15 -12 20 -23 9z"/>
<path d="M4347 7513 c-12 -11 -8 -23 8 -23 8 0 15 -4 15 -10 0 -10 36 -50 45
-50 13 0 2 28 -23 58 -29 33 -34 36 -45 25z"/>
<path d="M4400 7505 c0 -8 4 -15 9 -15 5 0 17 -3 26 -7 15 -5 16 -3 6 15 -13
25 -41 29 -41 7z"/>
<path d="M4190 7500 c0 -5 5 -10 10 -10 6 0 10 5 10 10 0 6 -4 10 -10 10 -5 0
-10 -4 -10 -10z"/>
<path d="M4840 7500 c0 -5 5 -10 11 -10 5 0 7 5 4 10 -3 6 -8 10 -11 10 -2 0
-4 -4 -4 -10z"/>
<path d="M4880 7500 c0 -5 9 -10 21 -10 11 0 17 5 14 10 -3 6 -13 10 -21 10
-8 0 -14 -4 -14 -10z"/>
<path d="M4945 7480 c3 -5 8 -10 11 -10 2 0 4 5 4 10 0 6 -5 10 -11 10 -5 0
-7 -4 -4 -10z"/>
<path d="M5680 7470 c0 -23 10 -26 28 -8 18 18 15 28 -8 28 -13 0 -20 -7 -20
-20z"/>
<path d="M4880 7460 c0 -19 3 -21 12 -12 9 9 9 15 0 24 -9 9 -12 7 -12 -12z"/>
<path d="M4240 7433 c0 -13 5 -23 10 -23 13 0 13 11 0 30 -8 12 -10 11 -10 -7z"/>
<path d="M4320 7432 c0 -22 42 -40 98 -41 31 -1 42 3 42 14 0 19 -32 33 -38
17 -2 -7 -19 -12 -37 -12 -24 0 -34 5 -38 20 -6 25 -27 27 -27 2z"/>
<path d="M4525 7420 c-3 -5 3 -10 14 -10 12 0 21 5 21 10 0 6 -6 10 -14 10 -8
0 -18 -4 -21 -10z"/>
<path d="M5108 7424 c-4 -3 -1 -13 7 -20 16 -16 85 -19 85 -4 0 6 -18 10 -39
10 -22 0 -41 5 -43 11 -2 5 -6 7 -10 3z"/>
<path d="M4270 7395 c0 -8 5 -15 10 -15 6 0 10 7 10 15 0 8 -4 15 -10 15 -5 0
-10 -7 -10 -15z"/>
<path d="M4670 7378 c0 -31 0 -31 21 -12 17 16 22 16 31 4 8 -12 9 -11 4 3 -3
10 -6 23 -6 28 0 5 -11 9 -25 9 -21 0 -25 -5 -25 -32z"/>
<path d="M4840 7402 c0 -5 9 -17 20 -27 20 -18 20 -17 20 8 0 20 -5 27 -20 27
-11 0 -20 -4 -20 -8z"/>
<path d="M5213 7379 l-12 -31 -81 7 c-70 6 -80 5 -80 -9 0 -11 9 -16 28 -16
15 0 33 -5 40 -12 9 -9 12 -9 12 0 0 8 24 12 76 12 l77 0 -7 31 c-3 17 -6 35
-6 40 0 5 -8 9 -18 9 -11 0 -22 -12 -29 -31z"/>
<path d="M5280 7370 c0 -38 2 -40 30 -40 28 0 36 9 30 35 -1 5 -2 18 -3 27 -1
13 -10 18 -29 18 -26 0 -28 -3 -28 -40z"/>
<path d="M5712 7358 c-19 -19 -14 -28 18 -28 23 0 30 4 30 20 0 23 -29 27 -48
8z"/>
<path d="M4265 7311 c-16 -3 -25 -9 -20 -13 18 -11 90 -13 92 -3 0 6 -3 9 -8
8 -5 -2 -9 2 -9 7 0 11 -9 11 -55 1z"/>
<path d="M4253 7253 c9 -2 25 -2 35 0 9 3 1 5 -18 5 -19 0 -27 -2 -17 -5z"/>
<path d="M5220 7230 c0 -18 -7 -20 -59 -20 -72 0 -94 -17 -62 -49 16 -16 21
-18 21 -6 0 23 26 18 55 -10 14 -14 25 -32 25 -40 0 -8 5 -15 10 -15 6 0 10 6
10 14 0 8 -4 18 -10 21 -5 3 -10 15 -10 26 0 10 5 19 10 19 6 0 10 9 10 20 0
13 7 20 20 20 21 0 29 -35 10 -42 -10 -3 8 -67 22 -78 3 -3 8 -21 11 -40 2
-19 2 8 -1 60 -3 52 -9 97 -13 98 -5 2 -9 12 -9 23 0 12 -7 19 -20 19 -13 0
-20 -7 -20 -20z"/>
<path d="M4240 7212 c0 -5 7 -9 15 -9 8 0 15 4 15 9 0 4 -7 8 -15 8 -8 0 -15
-4 -15 -8z"/>
<path d="M4789 7188 c-6 -21 -5 -39 2 -44 5 -3 9 6 9 20 0 21 -7 36 -11 24z"/>
<path d="M5014 7176 c-21 -9 -42 -56 -51 -113 -5 -33 -5 -33 34 -33 39 0 73
22 73 48 0 7 9 12 21 12 28 0 21 34 -9 38 -15 2 -25 -4 -32 -20 -8 -19 -9 -16
-5 17 6 49 -3 64 -31 51z"/>
<path d="M4830 7155 c0 -8 5 -15 10 -15 6 0 10 7 10 15 0 8 -4 15 -10 15 -5 0
-10 -7 -10 -15z"/>
<path d="M4890 7161 c0 -6 5 -13 10 -16 6 -3 10 1 10 9 0 9 -4 16 -10 16 -5 0
-10 -4 -10 -9z"/>
<path d="M4942 7137 c-15 -43 -15 -47 3 -47 11 0 15 11 15 40 0 22 -1 40 -3
40 -2 0 -8 -15 -15 -33z"/>
<path d="M4800 7087 c0 -21 -7 -38 -20 -47 -26 -19 -25 -45 1 -64 17 -11 20
-20 14 -46 -4 -17 -13 -34 -21 -37 -8 -3 -14 -14 -14 -24 0 -10 -7 -19 -15
-19 -8 0 -15 8 -15 18 0 12 -4 10 -13 -8 -17 -34 -48 -40 -45 -8 4 29 -32 37
-56 13 -14 -14 -19 -15 -33 -3 -13 10 -17 10 -20 1 -5 -15 -33 -17 -33 -3 0 6
-7 10 -16 10 -10 0 -14 -6 -11 -14 3 -8 -1 -17 -9 -20 -10 -4 -14 2 -14 19 0
18 -5 25 -19 25 -25 0 -135 -101 -120 -111 7 -4 3 -9 -12 -14 -14 -5 -25 -3
-27 4 -5 15 -39 14 -46 -1 -5 -10 -7 -10 -12 0 -7 16 -46 16 -62 0 -9 -9 -15
-10 -20 -2 -14 22 -128 26 -205 8 -64 -16 -126 -46 -135 -66 -2 -5 -9 -8 -17
-8 -17 0 -31 -19 -39 -52 -5 -24 -3 -28 16 -29 16 0 8 -6 -22 -16 -57 -20 -59
-22 -36 -39 19 -13 18 -14 -15 -15 -19 0 -29 -3 -22 -5 8 -4 10 -16 6 -36 -4
-22 -3 -29 5 -24 7 4 12 18 12 32 0 13 5 24 11 24 8 0 9 -13 5 -39 -4 -28 -2
-42 9 -51 17 -14 34 -5 70 36 18 21 24 22 63 12 23 -6 42 -16 42 -22 0 -7 3
-7 8 1 9 14 82 6 82 -8 0 -5 10 -9 22 -9 21 0 21 -1 5 -17 -15 -15 -19 -16
-26 -4 -7 11 -11 10 -20 -7 -6 -11 -11 -28 -11 -36 0 -11 -9 -16 -27 -16 l-27
0 22 -16 c19 -13 20 -18 10 -37 -16 -32 -48 -57 -71 -57 -13 0 -17 -5 -13 -16
5 -12 2 -15 -10 -10 -10 4 -14 1 -11 -6 2 -7 -1 -17 -8 -23 -10 -9 -22 -36
-56 -123 -5 -12 -19 -27 -31 -32 -13 -5 -18 -9 -12 -9 6 -1 47 15 92 34 91 40
115 36 126 -18 4 -18 14 -31 27 -34 16 -4 20 -12 16 -29 -4 -22 -1 -24 39 -24
46 0 59 -14 24 -25 -28 -9 -45 -42 -29 -61 9 -11 8 -14 -10 -14 -11 0 -21 6
-21 13 -1 7 -6 5 -14 -5 -16 -22 -26 -23 -26 -3 0 22 -15 18 -29 -8 -7 -12
-26 -29 -44 -37 l-32 -14 29 -7 c16 -5 32 -6 36 -4 4 3 10 -13 14 -35 7 -44
26 -55 26 -16 0 14 4 27 9 30 12 8 34 -20 27 -33 -17 -26 7 -39 85 -46 43 -4
79 -11 79 -16 0 -5 18 -9 40 -9 22 0 40 -4 40 -10 0 -5 18 -10 40 -10 29 0 40
4 40 15 0 10 -10 15 -31 15 -17 0 -28 4 -24 10 10 15 52 12 59 -5 3 -9 19 -15
41 -15 24 0 35 -4 35 -15 0 -9 9 -15 25 -15 14 0 25 -4 25 -10 0 -5 7 -10 15
-10 8 0 15 7 15 15 0 10 14 17 40 21 22 4 40 10 40 15 0 5 16 9 35 9 31 0 85
36 85 58 0 4 13 13 30 20 16 7 32 23 36 35 4 12 18 37 32 55 13 17 22 32 19
32 -6 0 28 43 61 75 12 12 22 29 22 37 0 8 3 18 7 22 10 10 43 98 43 115 0 8
6 22 14 30 8 9 17 39 20 66 3 28 3 44 0 38 -8 -18 -24 -16 -24 2 0 8 5 15 10
15 13 0 13 36 0 61 -9 16 -7 19 15 19 14 0 25 5 25 10 0 6 -7 10 -15 10 -8 0
-15 7 -15 15 0 17 35 21 45 5 10 -15 35 -12 35 5 0 8 -7 15 -15 15 -8 0 -15 5
-15 10 0 6 -8 10 -17 10 -9 0 -14 3 -10 6 3 4 20 1 38 -5 l31 -11 -16 25 c-10
15 -12 26 -6 30 6 3 10 1 10 -4 0 -6 17 -26 37 -44 33 -31 38 -33 54 -18 17
14 17 17 4 38 -19 28 -19 63 -1 63 8 0 18 -9 21 -20 8 -25 35 -26 68 0 l25 20
6 -25 c5 -21 11 -24 30 -19 17 4 31 -2 51 -20 15 -14 31 -26 34 -26 3 0 14 -7
24 -15 17 -13 18 -16 4 -42 -9 -15 -26 -57 -40 -93 -21 -55 -23 -75 -17 -130
7 -67 58 -176 86 -187 8 -3 14 -12 14 -21 0 -15 77 -92 92 -92 4 0 8 6 8 14 0
12 4 13 23 3 51 -27 87 -62 87 -83 0 -23 26 -41 33 -21 2 8 5 8 11 -1 4 -7 2
-12 -3 -12 -6 0 -11 -7 -11 -15 0 -9 9 -15 22 -15 12 0 32 -9 44 -21 l22 -21
7 21 c9 30 41 26 53 -6 7 -18 11 -22 11 -10 1 23 81 25 81 2 0 -9 9 -15 22
-15 12 0 30 -7 40 -17 11 -9 18 -11 18 -5 0 7 6 12 14 12 7 0 19 7 26 15 7 8
29 15 50 15 21 0 43 7 50 15 7 8 18 15 24 15 17 0 76 54 76 69 0 9 -8 11 -24
7 -14 -3 -32 -3 -42 1 -14 5 -10 9 19 19 57 20 73 13 69 -31 -5 -55 21 -41 29
16 8 53 5 59 -27 59 -13 0 -24 4 -24 10 0 6 -10 5 -25 -2 -20 -9 -34 -9 -59 0
-18 7 -43 12 -55 12 -20 0 -22 4 -16 23 4 12 7 30 6 40 0 9 6 17 13 17 8 0 16
9 19 21 4 13 10 18 17 14 7 -4 16 -2 20 6 5 7 28 14 51 15 33 1 44 6 51 23 10
29 53 27 95 -5 26 -19 38 -23 46 -15 8 8 8 14 -1 23 -7 7 -12 16 -12 21 0 5 7
1 16 -7 8 -9 22 -16 30 -16 8 0 14 -4 14 -10 0 -5 7 -10 15 -10 19 0 19 7 0
26 -8 8 -12 21 -9 28 3 8 1 17 -5 21 -6 3 -11 14 -11 24 0 10 -17 31 -37 46
-21 16 -43 34 -50 42 -6 8 -17 16 -25 17 -20 4 -78 40 -78 49 0 4 -9 7 -21 7
-11 0 -27 7 -36 16 -9 8 -21 13 -28 10 -7 -2 -15 4 -18 15 -3 12 -12 19 -23
17 -9 -2 -19 3 -21 10 -4 10 2 11 24 6 l28 -7 -25 21 c-29 24 -20 41 26 46 15
2 30 9 32 17 7 22 34 39 63 39 19 0 29 7 34 23 l8 22 4 -22 c2 -13 11 -23 20
-23 8 0 26 -9 40 -20 14 -11 37 -20 52 -21 14 0 20 -3 14 -6 -22 -8 -14 -23
11 -23 14 0 27 -4 31 -10 3 -5 13 -6 22 -3 12 5 15 2 10 -10 -4 -11 -1 -17 8
-17 23 0 18 26 -10 56 -14 15 -23 34 -21 41 4 10 -1 12 -22 7 -15 -4 -28 -11
-30 -16 -2 -4 -13 -8 -25 -8 -16 0 -18 3 -9 12 7 7 12 20 12 30 0 16 3 16 21
6 17 -11 22 -10 35 7 13 17 16 18 24 5 8 -13 10 -12 10 3 0 15 -5 17 -30 12
-26 -6 -30 -4 -31 17 -2 30 -2 30 7 52 7 17 4 18 -25 13 -28 -6 -37 -2 -65 28
-19 19 -38 35 -45 35 -6 0 -11 5 -11 10 0 6 -11 10 -25 10 -14 0 -25 5 -25 10
0 6 -8 5 -21 -2 -17 -11 -22 -10 -30 5 -12 21 -47 22 -77 2 -19 -14 -24 -14
-46 0 -14 9 -31 13 -37 9 -7 -4 -34 -6 -61 -5 -33 1 -48 -2 -48 -11 0 -9 -3
-9 -12 0 -7 7 -25 12 -42 12 -30 0 -86 15 -118 31 -10 5 -25 9 -33 9 -8 0 -15
5 -15 10 0 6 6 10 13 10 20 0 47 33 47 58 0 13 -6 22 -15 22 -9 0 -26 7 -39
15 -21 14 -24 14 -29 0 -4 -9 -19 -15 -42 -15 -34 0 -35 1 -35 40 l0 40 -55 0
-55 0 0 40 c0 23 -5 40 -11 40 -8 0 -10 -17 -6 -54 4 -43 2 -56 -10 -60 -22
-9 -23 -8 -24 17 -1 13 -5 6 -10 -18 -7 -27 -6 -41 1 -43 5 -2 10 -8 10 -14 0
-27 -29 17 -35 53 -9 52 -25 50 -25 -4 0 -24 -5 -48 -12 -55 -7 -7 -43 -12
-90 -12 -63 0 -78 3 -78 15 0 8 -4 15 -10 15 -5 0 -10 -18 -10 -40 0 -29 -4
-40 -15 -40 -8 0 -15 6 -15 13 0 18 -42 67 -58 67 -7 0 -12 10 -12 21 0 17 3
19 13 10 17 -13 27 -5 27 23 0 17 -2 18 -10 6 -8 -13 -10 -12 -10 3 0 9 -4 17
-10 17 -5 0 -10 -8 -10 -19 0 -21 -23 -45 -33 -34 -4 3 -7 18 -6 32 0 24 1 24
9 6 9 -21 14 -8 10 28 -6 65 -105 91 -155 42 -27 -28 -32 -51 -12 -58 10 -4
10 -7 0 -18 -7 -7 -13 -21 -13 -31 0 -10 -4 -18 -9 -18 -13 0 -24 57 -15 72 5
7 9 44 10 82 1 42 6 72 13 74 14 5 15 32 1 32 -5 0 -10 -6 -10 -14 0 -8 -5
-16 -12 -18 -8 -3 -14 -33 -16 -81 -2 -42 -8 -77 -13 -77 -5 0 -9 -9 -9 -20 0
-11 -4 -20 -10 -20 -13 0 -13 37 1 42 7 2 7 17 0 47 -5 25 -7 66 -4 93 3 26 3
48 -1 48 -3 0 -6 -15 -6 -33z m-3 -229 c-3 -8 -6 -5 -6 6 -1 11 2 17 5 13 3
-3 4 -12 1 -19z m119 -23 c-25 -19 -36 -19 -36 0 0 10 10 15 28 15 26 -1 26
-1 8 -15z m576 3 c-9 -9 -15 -9 -24 0 -9 9 -7 12 12 12 19 0 21 -3 12 -12z
m81 -8 c-3 -11 -9 -17 -14 -14 -14 8 -10 34 5 34 9 0 12 -7 9 -20z m137 11 c0
-5 -7 -11 -15 -15 -9 -3 -15 0 -15 9 0 8 7 15 15 15 8 0 15 -4 15 -9z m-1790
-117 c0 -8 -5 -12 -10 -9 -6 4 -8 11 -5 16 9 14 15 11 15 -7z m-50 -31 c-8 -3
-18 -11 -22 -17 -5 -7 -8 -4 -8 7 0 11 7 17 23 16 15 0 17 -2 7 -6z m-50 -23
c0 -5 -5 -10 -11 -10 -5 0 -7 5 -4 10 3 6 8 10 11 10 2 0 4 -4 4 -10z m2497
-36 c-3 -3 -12 -4 -19 -1 -8 3 -5 6 6 6 11 1 17 -2 13 -5z m-67 -123 c0 -6 -4
-13 -10 -16 -5 -3 -10 1 -10 9 0 9 5 16 10 16 6 0 10 -4 10 -9z m-2077 -85
c13 -10 15 -15 5 -18 -22 -8 -47 3 -41 18 6 17 13 17 36 0z m60 -183 c-7 -2
-19 -2 -25 0 -7 3 -2 5 12 5 14 0 19 -2 13 -5z m1687 -13 c0 -5 -10 -10 -22
-10 -19 0 -20 2 -8 10 19 13 30 13 30 0z m280 -56 c5 -13 15 -24 22 -24 9 0
10 -3 2 -8 -6 -4 -13 -13 -15 -21 -3 -7 -23 -19 -44 -27 -65 -22 -93 -16 -63
14 9 9 8 16 -6 30 -24 28 -7 69 31 74 37 5 62 -8 73 -38z m-2180 7 c0 -10 -7
-24 -15 -31 -10 -9 -15 -9 -15 -1 0 6 -7 11 -16 11 -9 0 -14 6 -11 13 2 6 9
12 15 12 5 0 14 3 18 8 13 13 24 8 24 -12z m1759 -62 c-8 -4 -16 -4 -19 0 -3
4 -12 11 -20 15 -8 3 -5 4 8 2 17 -3 22 0 22 18 0 37 15 41 18 6 2 -19 -2 -36
-9 -41z m62 -1 c12 -23 7 -23 -19 1 -12 10 -22 27 -22 37 1 18 1 18 16 -1 9
-11 20 -28 25 -37z m225 -148 c8 0 14 -7 14 -15 0 -20 -7 -19 -38 7 -17 13
-20 19 -9 15 10 -4 25 -7 33 -7z m-576 -40 c0 -5 -4 -10 -10 -10 -5 0 -10 5
-10 10 0 6 5 10 10 10 6 0 10 -4 10 -10z m647 -116 c-3 -3 -12 -4 -19 -1 -8 3
-5 6 6 6 11 1 17 -2 13 -5z m-2064 -61 c-7 -2 -21 -2 -30 0 -10 3 -4 5 12 5
17 0 24 -2 18 -5z m-58 -13 c3 -5 1 -10 -4 -10 -6 0 -11 5 -11 10 0 6 2 10 4
10 3 0 8 -4 11 -10z m2120 0 c3 -5 -3 -10 -15 -10 -12 0 -18 5 -15 10 3 6 10
10 15 10 5 0 12 -4 15 -10z m-1619 -15 c-25 -19 -36 -19 -36 0 0 10 10 15 28
15 26 -1 26 -1 8 -15z"/>
<path d="M4745 7100 c-3 -5 1 -10 9 -10 9 0 16 5 16 10 0 6 -4 10 -9 10 -6 0
-13 -4 -16 -10z"/>
<path d="M5440 7085 c0 -25 0 -25 -36 -10 -51 21 -54 20 -54 -27 0 -24 4 -38
8 -32 7 11 69 30 84 26 4 -1 10 9 14 23 8 33 37 32 51 -2 11 -28 11 -28 12 10
1 37 1 37 -39 37 -36 0 -40 -2 -40 -25z"/>
<path d="M5060 6990 c0 -12 7 -20 16 -20 9 0 18 -9 21 -20 6 -22 23 -27 23 -7
0 7 -6 25 -12 40 -15 32 -48 37 -48 7z"/>
<path d="M5680 6989 c0 -18 2 -19 15 -9 8 7 15 16 15 21 0 5 -7 9 -15 9 -9 0
-15 -9 -15 -21z"/>
<path d="M4740 6915 c0 -8 5 -15 10 -15 6 0 10 7 10 15 0 8 -4 15 -10 15 -5 0
-10 -7 -10 -15z"/>
<path d="M5230 6865 c0 -8 5 -15 10 -15 6 0 10 7 10 15 0 8 -4 15 -10 15 -5 0
-10 -7 -10 -15z"/>
<path d="M5785 6780 c-3 -5 1 -10 10 -10 9 0 13 5 10 10 -3 6 -8 10 -10 10 -2
0 -7 -4 -10 -10z"/>
<path d="M6000 6769 c0 -5 5 -7 10 -4 6 3 10 8 10 11 0 2 -4 4 -10 4 -5 0 -10
-5 -10 -11z"/>
<path d="M5848 6763 c7 -3 16 -2 19 1 4 3 -2 6 -13 5 -11 0 -14 -3 -6 -6z"/>
<path d="M5938 6743 c12 -2 32 -2 45 0 12 2 2 4 -23 4 -25 0 -35 -2 -22 -4z"/>
<path d="M6385 6620 c-3 -5 -1 -10 4 -10 6 0 11 5 11 10 0 6 -2 10 -4 10 -3 0
-8 -4 -11 -10z"/>
<path d="M5200 6460 c0 -5 5 -10 11 -10 5 0 7 5 4 10 -3 6 -8 10 -11 10 -2 0
-4 -4 -4 -10z"/>
<path d="M6268 6453 c6 -2 18 -2 25 0 6 3 1 5 -13 5 -14 0 -19 -2 -12 -5z"/>
<path d="M5040 6380 c0 -5 5 -10 11 -10 5 0 7 5 4 10 -3 6 -8 10 -11 10 -2 0
-4 -4 -4 -10z"/>
<path d="M4951 6064 c0 -11 3 -14 6 -6 3 7 2 16 -1 19 -3 4 -6 -2 -5 -13z"/>
<path d="M5023 6023 c-18 -7 -16 -23 2 -23 8 0 15 7 15 15 0 8 -1 15 -2 14 -2
0 -9 -3 -15 -6z"/>
<path d="M6412 6019 c2 -7 10 -15 17 -17 8 -3 12 1 9 9 -2 7 -10 15 -17 17 -8
3 -12 -1 -9 -9z"/>
<path d="M4947 5983 c-4 -9 -3 -14 8 -60 5 -22 13 -33 25 -33 10 0 20 -9 23
-20 3 -11 12 -20 21 -20 9 0 16 8 16 20 0 13 -7 20 -20 20 -17 0 -20 7 -20 50
0 46 -2 50 -24 50 -14 0 -27 -3 -29 -7z"/>
<path d="M5212 5973 c9 -2 19 -12 21 -21 3 -12 5 -10 6 6 1 17 -4 22 -21 21
-16 -1 -18 -3 -6 -6z"/>
<path d="M2961 5931 c-25 -22 -27 -28 -46 -179 -8 -62 -19 -120 -24 -130 -22
-43 11 -204 39 -187 5 3 9 34 8 68 -2 77 24 143 59 150 17 3 23 0 23 -12 0
-10 4 -21 9 -26 5 -6 11 -19 14 -30 3 -13 5 -10 6 11 2 51 41 196 75 275 5 11
-1 25 -16 39 -46 44 -110 53 -147 21z"/>
<path d="M7330 5937 c-30 -15 -30 -19 -1 -80 28 -60 39 -163 31 -297 -7 -114
-1 -310 9 -310 11 0 41 57 41 77 0 10 6 27 13 38 19 28 22 84 19 288 -4 197
-12 238 -58 273 -26 20 -33 21 -54 11z"/>
<path d="M4915 5890 c-4 -6 0 -19 9 -29 9 -10 16 -25 16 -34 0 -12 9 -17 30
-17 20 0 30 5 30 16 0 8 -13 20 -30 25 -16 6 -30 17 -30 24 0 18 -17 28 -25
15z"/>
<path d="M6340 5857 c0 -7 9 -18 20 -25 24 -15 27 0 4 22 -19 19 -24 20 -24 3z"/>
<path d="M5550 5840 c0 -5 9 -10 19 -10 11 0 23 -4 26 -10 3 -5 10 -10 16 -10
5 0 4 9 -3 20 -13 20 -58 28 -58 10z"/>
<path d="M4960 5775 c0 -9 9 -15 24 -15 30 0 42 15 20 24 -27 10 -44 7 -44 -9z"/>
<path d="M7143 5746 c-12 -19 -25 -47 -29 -63 -7 -26 -7 -27 10 -10 21 21 45
22 52 2 10 -26 24 -17 24 15 0 17 -6 33 -14 36 -8 3 -11 15 -8 30 6 34 -9 30
-35 -10z"/>
<path d="M4880 5720 c0 -5 6 -10 14 -10 8 0 18 5 21 10 3 6 -3 10 -14 10 -12
0 -21 -4 -21 -10z"/>
<path d="M6172 5714 c-7 -8 -12 -22 -9 -32 3 -13 6 -11 15 9 6 15 17 29 24 32
10 4 9 6 -2 6 -8 0 -21 -6 -28 -15z"/>
<path d="M4947 5676 c-10 -25 -8 -26 33 -16 31 7 32 8 8 9 -14 1 -28 6 -30 13
-3 7 -7 5 -11 -6z"/>
<path d="M4640 5662 c0 -7 -7 -12 -16 -12 -11 0 -14 -6 -9 -20 5 -15 0 -21
-20 -26 -14 -3 -33 -19 -42 -34 -9 -16 -27 -33 -40 -39 -12 -6 -23 -17 -23
-26 0 -8 -3 -15 -7 -15 -5 0 -16 -14 -25 -30 -14 -24 -22 -29 -40 -25 -18 5
-30 -2 -51 -28 -15 -19 -40 -40 -56 -47 -17 -7 -32 -22 -35 -36 -7 -25 -62
-58 -78 -48 -5 3 -8 -6 -8 -19 0 -14 -7 -30 -15 -37 -8 -7 -15 -21 -15 -31 0
-23 -26 -25 -46 -4 -22 22 -34 18 -34 -10 0 -14 -4 -25 -8 -25 -15 0 -34 -52
-24 -62 6 -6 5 -20 -4 -36 -21 -40 -17 -61 11 -68 18 -4 25 -13 25 -30 0 -15
-6 -24 -15 -24 -8 0 -15 -4 -15 -10 0 -5 4 -10 9 -10 6 0 13 5 16 10 3 6 24
10 46 10 35 0 39 3 39 24 0 22 3 24 40 19 35 -5 40 -3 40 14 0 11 16 29 40 43
22 14 40 28 40 33 0 4 8 7 18 7 23 1 52 24 52 41 0 18 57 44 87 40 12 -1 30 2
40 8 15 8 10 10 -24 11 -24 0 -43 5 -43 10 0 9 14 14 33 11 4 -1 17 15 28 34
21 35 44 49 33 20 -7 -18 14 -75 28 -75 14 0 4 -25 -10 -26 -7 -1 -19 -2 -27
-3 -9 0 -15 -11 -15 -26 0 -20 5 -25 25 -25 23 0 25 -4 25 -40 0 -28 -4 -40
-14 -40 -8 0 -18 -9 -21 -20 -3 -11 -10 -20 -15 -20 -4 0 -14 -15 -21 -32 -11
-29 -13 -30 -16 -12 -5 27 -38 58 -52 49 -16 -9 -13 -25 5 -25 9 0 14 -6 11
-12 -2 -9 -26 -13 -75 -12 -40 1 -72 -3 -72 -7 0 -11 -56 -40 -63 -32 -7 7
-37 -15 -37 -27 0 -5 8 -11 18 -13 9 -3 3 -5 -15 -6 -35 -1 -53 -19 -32 -32
11 -7 10 -11 -6 -23 -11 -9 -25 -16 -31 -16 -14 0 -27 -36 -24 -67 1 -12 -6
-36 -16 -54 -9 -18 -18 -51 -19 -74 -1 -22 -6 -53 -10 -68 -5 -17 -3 -33 3
-39 8 -8 6 -20 -5 -41 -14 -28 -14 -32 1 -43 11 -8 13 -13 5 -16 -8 -3 -9 -17
-4 -46 4 -23 11 -40 16 -36 5 3 9 -13 9 -36 0 -23 -4 -39 -9 -36 -4 3 -6 -6
-3 -19 4 -24 10 -26 75 -16 4 0 7 9 7 19 1 12 6 8 16 -12 13 -22 18 -26 25
-15 14 22 11 39 -7 39 -12 0 -8 8 15 30 17 17 31 35 31 40 0 6 9 10 20 10 15
0 26 13 40 43 l19 42 0 -32 c1 -32 3 -33 41 -33 22 0 40 5 40 10 0 6 5 10 11
10 6 0 30 16 54 36 37 30 50 35 81 31 20 -3 41 -10 47 -16 6 -6 30 -11 53 -11
38 0 42 -3 50 -32 5 -19 19 -37 32 -43 26 -11 27 -18 7 -39 -20 -20 -19 -46 3
-46 13 -1 10 -4 -9 -15 -15 -8 -31 -30 -39 -55 -7 -23 -22 -46 -32 -51 -10 -5
-18 -15 -18 -22 -1 -18 -49 -50 -66 -43 -18 7 -18 -8 1 -24 8 -7 15 -16 15
-21 0 -5 -7 -9 -15 -9 -8 0 -15 7 -15 16 0 8 -4 12 -10 9 -5 -3 -10 -17 -10
-30 0 -13 5 -27 10 -30 6 -3 10 -15 10 -26 0 -12 7 -19 18 -19 10 0 22 -3 26
-7 21 -21 98 -40 145 -35 41 4 51 8 51 23 0 11 7 19 15 19 11 0 15 -11 15 -40
0 -39 1 -40 35 -40 33 0 35 -2 35 -34 0 -19 3 -41 6 -50 4 -10 1 -16 -9 -16
-8 0 -17 5 -19 11 -2 7 -19 -2 -41 -21 -20 -17 -37 -27 -37 -20 0 16 -41 49
-62 50 -11 0 -18 8 -18 21 0 11 -4 17 -10 14 -5 -3 -10 -30 -10 -60 0 -57 -7
-65 -61 -65 -19 0 -29 -5 -29 -15 0 -8 4 -15 10 -15 5 0 18 -7 29 -16 15 -13
16 -20 8 -29 -13 -14 -31 -9 -22 6 4 5 1 9 -4 9 -6 0 -11 -18 -11 -40 0 -25 5
-40 13 -40 9 0 9 -2 -1 -9 -7 -4 -14 -17 -15 -29 -1 -15 -10 -23 -29 -27 -15
-4 -28 -11 -28 -16 0 -17 -18 -9 -23 11 -3 11 -10 20 -17 20 -7 0 -14 -9 -17
-20 -8 -29 -21 -25 -26 8 l-4 27 -2 -27 c0 -18 -7 -28 -16 -28 -8 0 -15 -6
-15 -14 0 -14 -42 -26 -91 -26 -16 0 -29 5 -29 12 0 8 -3 9 -10 2 -14 -14 10
-64 31 -64 10 0 20 -11 23 -25 4 -14 13 -25 21 -25 11 0 15 -11 13 -42 -1 -37
-2 -39 -5 -10 -6 45 -23 40 -23 -7 0 -36 -3 -40 -27 -43 -26 -4 -26 -5 -8 -13
30 -13 36 -28 18 -47 -15 -17 -14 -18 18 -19 l34 -1 -40 -12 c-22 -7 -40 -19
-40 -26 0 -7 18 -19 40 -26 22 -6 32 -12 23 -13 -19 -1 -26 -21 -8 -21 17 0
33 -51 31 -97 -2 -37 1 -43 19 -43 11 0 20 -7 20 -15 0 -9 11 -20 25 -25 14
-5 28 -17 31 -25 4 -8 15 -15 26 -15 19 0 20 -5 15 -57 -3 -32 -8 -68 -12 -80
-6 -17 -3 -23 9 -23 9 0 16 -5 16 -11 0 -7 -7 -8 -17 -4 -10 4 -26 10 -36 12
-12 4 -16 11 -11 22 16 39 16 61 0 61 -9 0 -16 -8 -16 -19 0 -15 -10 -20 -51
-26 -29 -4 -54 -3 -58 2 -10 15 -44 24 -51 14 -9 -15 -50 -1 -50 16 0 11 -6
13 -22 8 -13 -4 -45 -10 -73 -14 -59 -8 -95 -26 -95 -46 0 -12 -17 -15 -82
-15 -82 0 -83 1 -59 19 23 18 23 18 3 23 -12 3 -23 1 -25 -5 -2 -8 -12 -6 -30
6 -14 9 -33 17 -41 17 -9 0 -19 12 -22 26 -4 14 -12 23 -19 20 -13 -4 -45 27
-45 44 0 6 -4 10 -9 10 -15 0 -32 -91 -26 -134 10 -61 59 -154 110 -211 25
-27 65 -72 88 -100 44 -52 85 -94 313 -316 76 -75 153 -152 169 -170 36 -42
156 -179 170 -195 240 -279 436 -473 515 -510 61 -30 238 -201 262 -254 7 -16
16 -30 20 -30 3 0 14 -24 23 -52 10 -29 21 -57 26 -62 10 -12 64 25 64 44 0 9
9 15 21 14 33 -1 19 45 -16 53 -26 5 -27 8 -23 44 5 32 3 39 -11 39 -23 0 -23
75 0 84 9 3 14 13 11 20 -7 19 18 40 38 32 9 -3 15 0 15 9 0 8 -4 15 -10 15
-5 0 -10 18 -10 40 l0 40 -40 0 c-56 0 -50 16 10 24 47 6 50 8 50 35 0 24 3
28 20 24 11 -3 20 -9 20 -14 0 -5 -9 -17 -20 -26 -12 -11 -20 -30 -20 -50 0
-33 0 -33 48 -33 55 0 86 24 95 75 15 85 42 158 68 186 16 17 29 33 29 35 0 4
27 38 48 59 6 8 12 18 12 24 0 6 9 15 19 21 11 5 28 24 38 40 9 17 23 30 30
30 7 0 13 8 13 18 0 9 12 28 26 41 24 23 145 172 217 269 18 23 46 60 62 81
17 21 62 83 100 136 39 54 77 105 86 114 8 9 29 34 45 56 26 35 94 120 158
195 11 14 37 45 56 70 19 25 37 47 40 50 10 10 90 119 90 124 0 2 21 37 48 78
88 136 117 190 143 267 26 73 24 112 -8 177 -20 41 -38 62 -70 81 -24 14 -47
22 -51 18 -4 -3 -9 -84 -13 -178 -5 -161 -7 -175 -32 -223 -71 -139 -184 -260
-292 -316 -22 -11 -42 -24 -45 -28 -9 -13 -79 -29 -86 -19 -3 5 -12 9 -21 9
-10 0 -14 -6 -10 -20 7 -28 -26 -44 -74 -36 -31 5 -43 2 -59 -14 -11 -11 -31
-20 -44 -20 -13 0 -26 -3 -28 -7 -1 -5 -19 -16 -38 -25 -56 -28 -92 -50 -142
-90 -26 -21 -56 -38 -67 -38 -12 0 -21 -5 -21 -10 0 -6 -11 -16 -25 -22 -14
-6 -25 -20 -25 -31 0 -20 0 -20 -62 0 -13 4 -18 0 -19 -13 0 -11 -3 -14 -6 -6
-6 16 -18 15 -56 -2 -35 -16 -124 -35 -199 -43 -36 -4 -59 0 -94 17 -43 21
-71 60 -59 80 3 5 0 19 -7 30 -12 19 -9 24 25 52 20 16 37 38 37 49 0 10 9 23
20 29 27 14 25 30 -2 31 -21 1 -21 2 -3 6 21 6 55 40 55 56 0 5 11 20 25 33
16 15 25 34 25 54 0 30 21 42 35 20 3 -5 15 -10 26 -10 18 0 20 5 15 40 -4 30
-2 40 8 40 8 0 17 -11 20 -25 7 -29 26 -24 26 6 0 10 7 19 15 19 23 0 18 18
-5 22 -38 6 -26 23 20 28 35 4 46 9 48 25 2 11 9 25 16 30 16 13 27 55 15 55
-5 0 -6 18 -3 40 7 42 -9 58 -19 19 -9 -35 -32 -16 -33 27 -1 53 5 74 22 74
10 0 14 12 14 40 0 36 -2 40 -25 40 -22 0 -25 4 -25 39 0 22 5 42 13 44 7 3 4
6 -7 6 -17 1 -18 -5 -12 -81 6 -79 -3 -123 -21 -105 -4 5 -1 12 7 18 10 6 11
12 5 17 -6 4 -16 19 -22 35 -11 23 -10 27 2 27 11 0 15 11 15 40 0 30 -4 40
-16 40 -13 0 -15 10 -12 51 l3 51 -40 14 c-22 7 -53 14 -68 14 -23 0 -31 6
-40 31 -10 25 -16 30 -36 26 -36 -7 -51 2 -51 29 0 19 -5 24 -25 24 -15 0 -25
6 -25 14 0 8 -7 17 -16 20 -10 4 -14 14 -11 26 3 13 0 20 -9 20 -8 0 -14 7
-14 16 0 9 -10 26 -22 39 -22 23 -52 120 -42 136 3 5 12 9 20 9 8 0 14 9 14
20 0 15 -7 20 -27 20 -27 1 -27 1 -9 15 11 8 27 13 36 10 10 -3 28 7 45 25 30
31 60 39 68 18 2 -7 8 -9 13 -5 5 4 2 12 -5 17 -10 6 -14 30 -13 84 0 55 -4
80 -14 91 -9 8 -13 19 -10 24 9 13 -5 101 -18 114 -6 7 -17 34 -24 61 -12 48
-12 51 13 75 21 21 25 22 25 8 0 -22 15 -22 54 2 20 12 58 20 105 24 40 2 76
9 80 15 6 10 182 34 190 26 2 -2 -3 -4 -12 -4 -9 0 -17 -6 -17 -13 0 -9 10
-12 30 -9 24 3 36 -2 59 -27 17 -18 39 -31 53 -31 14 0 33 -9 43 -20 10 -11
24 -20 32 -20 7 0 16 -6 19 -14 3 -8 16 -17 29 -20 13 -3 30 -9 39 -12 14 -5
16 4 16 65 0 39 4 71 9 71 15 0 21 30 11 51 -7 13 -7 19 0 19 5 0 10 18 10 40
0 29 -4 40 -15 40 -8 0 -15 7 -15 16 0 14 3 14 15 4 18 -15 19 -3 3 33 -7 15
-20 27 -30 27 -11 0 -15 6 -11 19 7 25 -24 105 -48 127 -11 9 -19 25 -19 34 0
10 -7 23 -16 31 -11 9 -14 22 -10 41 5 25 3 28 -19 28 -30 0 -32 11 -5 28 12
7 18 17 15 22 -9 15 -35 12 -35 -3 0 -8 -7 -14 -15 -14 -11 0 -12 4 -5 11 5 5
10 26 11 45 0 22 3 30 7 21 4 -8 23 -17 42 -19 19 -1 38 -8 42 -14 5 -8 13 -6
26 6 10 9 26 17 35 17 20 0 23 16 5 23 -10 3 -10 8 -2 18 6 8 10 50 10 94 -1
65 -5 84 -21 101 -82 86 -85 91 -85 138 0 33 6 52 20 66 l20 20 -26 0 c-14 0
-34 5 -45 11 -18 9 -19 7 -17 -25 3 -48 -6 -53 -31 -17 -12 17 -34 32 -52 36
-17 4 -33 13 -36 21 -3 8 -14 14 -24 14 -12 0 -19 7 -19 20 0 14 -6 19 -22 17
-16 -1 -26 6 -37 28 -8 16 -16 24 -18 18 -3 -9 -14 -8 -39 4 -30 15 -36 15
-49 2 -13 -13 -13 -20 5 -56 43 -89 48 -181 14 -262 -25 -60 -76 -83 -69 -32
3 25 -1 31 -26 40 -16 5 -29 17 -29 25 0 11 -10 16 -32 16 -18 0 -48 9 -65 20
-18 11 -33 16 -33 11 0 -14 -126 -41 -159 -35 -34 7 -52 24 -26 24 12 0 14 4
5 19 -5 11 -10 33 -10 49 0 16 -5 43 -11 61 -10 27 -13 30 -27 19 -13 -11 -15
-10 -9 4 4 12 2 15 -9 11 -7 -3 -14 -9 -14 -14 0 -27 -204 -45 -220 -19 -5 8
-13 11 -17 6 -4 -5 -2 -11 5 -13 6 -3 12 -12 12 -21 1 -9 7 -28 14 -41 17 -31
9 -61 -16 -61 -10 0 -16 -4 -13 -10 9 -15 -17 -11 -39 5 -10 8 -23 12 -27 9
-5 -3 -19 2 -31 10 -21 14 -27 13 -64 -3 -23 -11 -58 -35 -79 -55 -54 -52 -65
-43 -65 51 0 61 5 86 21 113 24 41 56 73 82 83 27 10 30 32 10 74 -10 21 -18
41 -18 45 0 3 -3 10 -7 14 -5 4 -8 2 -8 -4z m632 -395 c15 -13 45 -29 68 -37
41 -14 55 -42 25 -54 -8 -3 -15 -16 -15 -30 0 -29 -19 -46 -21 -19 -1 10 -1
24 0 31 1 6 -3 12 -9 12 -5 0 -10 -16 -10 -35 0 -19 -4 -35 -10 -35 -13 0 -13
31 0 64 6 17 14 24 25 20 8 -3 15 -1 15 5 0 6 -10 12 -22 13 -13 0 -28 2 -35
2 -6 1 -23 14 -38 30 -20 22 -29 25 -40 16 -32 -26 -84 -47 -94 -37 -10 10 9
37 27 37 6 0 12 6 15 14 3 8 23 17 44 19 21 2 40 4 43 5 3 1 17 -8 32 -21z
m-692 -62 c0 -8 -4 -15 -10 -15 -5 0 -10 7 -10 15 0 8 5 15 10 15 6 0 10 -7
10 -15z m1071 -55 c4 -19 12 -36 18 -38 16 -5 13 -22 -4 -22 -8 0 -15 -6 -15
-14 0 -7 -7 -19 -15 -26 -23 -19 -18 -40 10 -40 14 0 25 5 25 12 0 6 8 1 19
-10 19 -23 41 -29 41 -12 0 6 7 10 15 10 9 0 15 9 15 25 0 30 6 31 45 5 17
-11 38 -20 48 -20 14 0 17 -9 17 -46 0 -44 -1 -46 -25 -40 -18 5 -27 1 -35
-13 -13 -25 -13 -31 0 -31 6 0 15 10 20 23 5 12 9 16 9 10 1 -7 8 -13 16 -13
8 0 19 -9 25 -20 6 -11 17 -20 25 -20 17 0 22 -66 6 -72 -5 -1 -12 -32 -15
-68 -4 -46 -11 -69 -23 -77 -34 -23 -43 -34 -38 -43 7 -11 -20 -42 -48 -57
-20 -11 -96 3 -134 25 -12 6 -32 12 -45 12 -13 0 -41 9 -63 20 -22 10 -55 25
-72 32 -28 11 -33 18 -33 48 -1 31 -2 33 -14 18 -7 -10 -19 -18 -26 -18 -15 0
-39 29 -40 49 0 11 3 11 15 1 9 -7 23 -9 37 -4 13 4 26 7 29 6 4 -1 9 12 13
28 3 19 18 38 41 52 26 17 35 30 35 51 0 16 -4 26 -10 22 -5 -3 -10 -2 -10 4
0 5 -7 17 -16 25 -11 11 -14 25 -9 46 10 47 25 46 26 -2 0 -24 3 -37 6 -30 2
6 13 12 24 12 25 0 24 17 -1 25 -34 11 -22 25 20 25 22 0 40 3 40 8 0 4 -18 6
-40 4 -32 -3 -40 -1 -40 12 0 10 9 16 23 16 l22 1 -24 19 c-16 14 -22 27 -18
41 5 19 4 20 -12 5 -10 -9 -23 -16 -30 -16 -7 0 0 12 17 28 61 56 87 71 117
69 25 -2 30 -7 36 -37z m-131 -95 c0 -11 -11 -15 -40 -15 -29 0 -40 4 -40 15
0 11 11 15 40 15 29 0 40 -4 40 -15z m-960 -116 c0 -11 -4 -18 -10 -14 -5 3
-7 12 -3 20 7 21 13 19 13 -6z m900 -83 c0 -8 -4 -18 -10 -21 -5 -3 -10 3 -10
14 0 12 5 21 10 21 6 0 10 -6 10 -14z m90 -436 c-19 -13 -30 -13 -30 0 0 6 10
10 23 10 18 0 19 -2 7 -10z m-68 -22 c-7 -7 -12 -8 -12 -2 0 14 12 26 19 19 2
-3 -1 -11 -7 -17z m-42 -18 c0 -5 -7 -10 -16 -10 -8 0 -12 5 -9 10 3 6 10 10
16 10 5 0 9 -4 9 -10z m-720 -370 c0 -5 -4 -10 -10 -10 -5 0 -10 5 -10 10 0 6
5 10 10 10 6 0 10 -4 10 -10z m640 -20 c0 -11 -4 -20 -9 -20 -5 0 -7 9 -4 20
3 11 7 20 9 20 2 0 4 -9 4 -20z m-716 -16 c18 -7 22 -39 6 -49 -6 -3 -10 5
-10 19 0 13 -6 27 -12 29 -7 3 -10 6 -6 6 3 1 13 -2 22 -5z m36 -74 c0 -5 -4
-10 -10 -10 -5 0 -10 5 -10 10 0 6 5 10 10 10 6 0 10 -4 10 -10z m277 -152
c-2 -13 -4 -3 -4 22 0 25 2 35 4 23 2 -13 2 -33 0 -45z m48 53 c3 -5 1 -12 -5
-16 -5 -3 -10 1 -10 9 0 18 6 21 15 7z m-260 -161 c-3 -5 -10 -10 -16 -10 -5
0 -9 5 -9 10 0 6 7 10 16 10 8 0 12 -4 9 -10z m-100 -220 c3 -5 -1 -10 -10
-10 -9 0 -13 5 -10 10 3 6 8 10 10 10 2 0 7 -4 10 -10z m955 -80 c0 -5 -9 -10
-21 -10 -11 0 -17 5 -14 10 3 6 13 10 21 10 8 0 14 -4 14 -10z m80 -345 c0
-14 -2 -25 -4 -25 -2 0 -6 11 -8 25 -3 14 -1 25 3 25 5 0 9 -11 9 -25z m-1018
-330 c-5 -27 -20 -35 -64 -35 -36 0 -38 2 -38 33 l0 33 53 -6 c45 -4 52 -8 49
-25z m-414 -36 c3 -14 -3 -15 -43 -6 -57 13 -59 29 -3 25 30 -2 44 -8 46 -19z
m-88 -24 c0 -8 -9 -15 -20 -15 -11 0 -20 7 -20 15 0 8 9 15 20 15 11 0 20 -7
20 -15z m1273 -2 c-7 -2 -19 -2 -25 0 -7 3 -2 5 12 5 14 0 19 -2 13 -5z
m-1323 -28 c0 -12 -13 -15 -55 -15 -42 0 -55 3 -55 15 0 12 13 15 55 15 42 0
55 -3 55 -15z m2165 -35 c3 -5 -3 -10 -14 -10 -12 0 -21 5 -21 10 0 6 6 10 14
10 8 0 18 -4 21 -10z m-2017 -257 c-10 -2 -26 -2 -35 0 -10 3 -2 5 17 5 19 0
27 -2 18 -5z m1552 -9 c0 -17 -22 -14 -28 4 -2 7 3 12 12 12 9 0 16 -7 16 -16z
m-1490 -24 c0 -5 -7 -10 -15 -10 -8 0 -15 5 -15 10 0 6 7 10 15 10 8 0 15 -4
15 -10z m15 -30 c3 -5 1 -10 -4 -10 -6 0 -11 5 -11 10 0 6 2 10 4 10 3 0 8 -4
11 -10z m-75 -7 c-8 -3 -18 -10 -21 -15 -3 -5 -12 -2 -19 7 -11 13 -8 15 21
14 19 0 27 -3 19 -6z m123 -90 c-13 -2 -33 -2 -45 0 -13 2 -3 4 22 4 25 0 35
-2 23 -4z m177 -119 c0 -9 -7 -14 -17 -12 -25 5 -28 28 -4 28 12 0 21 -6 21
-16z m-17 -57 c27 -7 52 -19 57 -27 5 -8 17 -10 35 -6 30 8 85 -10 85 -27 0
-6 -22 -8 -60 -4 -37 4 -60 3 -60 -3 0 -13 -57 -13 -64 -1 -4 5 0 11 6 14 7 2
-3 9 -22 16 -19 6 -44 23 -54 38 l-19 26 24 -6 c13 -3 46 -12 72 -20z m97 -87
c0 -5 -4 -10 -10 -10 -5 0 -10 5 -10 10 0 6 5 10 10 10 6 0 10 -4 10 -10z
m1250 -240 c0 -5 -9 -10 -19 -10 -11 0 -23 5 -26 10 -4 6 5 10 19 10 14 0 26
-4 26 -10z m-40 -56 c0 -8 -5 -12 -10 -9 -6 4 -8 11 -5 16 9 14 15 11 15 -7z
m-250 -144 c0 -5 -4 -10 -10 -10 -5 0 -10 5 -10 10 0 6 5 10 10 10 6 0 10 -4
10 -10z m7 -217 c-3 -10 -5 -2 -5 17 0 19 2 27 5 18 2 -10 2 -26 0 -35z m43
35 c0 -7 -5 -20 -10 -28 -8 -12 -10 -9 -10 13 0 15 5 27 10 27 6 0 10 -6 10
-12z m-43 -90 c-3 -8 -6 -5 -6 6 -1 11 2 17 5 13 3 -3 4 -12 1 -19z m-167 -79
c0 -24 -23 -21 -28 4 -2 10 3 17 12 17 10 0 16 -9 16 -21z m-114 -68 c-3 -5
-15 -7 -26 -4 -28 7 -25 13 6 13 14 0 23 -4 20 -9z m110 -148 c-10 -10 -19 5
-10 18 6 11 8 11 12 0 2 -7 1 -15 -2 -18z m28 -32 c3 -5 -3 -11 -14 -14 -20
-5 -26 3 -13 16 9 10 21 9 27 -2z"/>
<path d="M5590 4866 c0 -9 7 -16 16 -16 9 0 14 5 12 12 -6 18 -28 21 -28 4z"/>
<path d="M5821 4853 c12 -3 16 -15 15 -43 0 -25 6 -46 17 -57 9 -9 17 -13 18
-8 0 6 2 24 3 42 4 36 -24 74 -52 72 -15 -1 -15 -2 -1 -6z"/>
<path d="M5565 4840 c3 -5 8 -10 11 -10 2 0 4 5 4 10 0 6 -5 10 -11 10 -5 0
-7 -4 -4 -10z"/>
<path d="M5681 4814 c0 -11 3 -14 6 -6 3 7 2 16 -1 19 -3 4 -6 -2 -5 -13z"/>
<path d="M5591 4784 c0 -11 3 -14 6 -6 3 7 2 16 -1 19 -3 4 -6 -2 -5 -13z"/>
<path d="M5500 4763 c0 -5 8 -17 17 -28 14 -18 15 -18 9 -2 -3 10 -6 23 -6 28
0 5 -4 9 -10 9 -5 0 -10 -3 -10 -7z"/>
<path d="M5140 5660 c0 -5 5 -10 11 -10 5 0 7 5 4 10 -3 6 -8 10 -11 10 -2 0
-4 -4 -4 -10z"/>
<path d="M4960 5610 c0 -17 7 -20 40 -20 33 0 40 3 40 20 0 17 -7 20 -40 20
-33 0 -40 -3 -40 -20z"/>
<path d="M3310 5598 c0 -16 -30 -44 -58 -52 -15 -5 -22 -17 -24 -44 -2 -27 -9
-40 -25 -47 -24 -10 -31 -25 -13 -25 6 0 10 -4 10 -10 0 -5 -7 -10 -15 -10
-10 0 -15 -10 -15 -31 0 -16 -5 -50 -11 -74 -10 -39 -9 -50 11 -90 13 -26 29
-45 38 -45 10 0 32 -9 50 -20 18 -11 33 -20 35 -20 1 0 3 48 4 106 2 58 10
147 20 198 20 111 22 168 6 173 -7 3 -13 -1 -13 -9z"/>
<path d="M7025 5593 c-12 -11 -15 -26 -11 -47 23 -127 33 -238 25 -273 -11
-49 -11 -174 0 -192 7 -10 12 -7 22 15 13 27 19 29 77 32 48 2 62 6 62 18 0 9
9 18 19 21 19 5 30 38 36 106 2 15 8 34 15 42 8 9 8 15 2 15 -6 0 -13 15 -17
33 -18 86 -26 109 -41 103 -10 -4 -14 2 -14 19 0 18 -4 23 -15 18 -9 -3 -15
-2 -14 3 4 25 -4 34 -28 34 -20 0 -36 10 -56 35 -32 40 -39 42 -62 18z"/>
<path d="M3001 5474 c0 -11 3 -14 6 -6 3 7 2 16 -1 19 -3 4 -6 -2 -5 -13z"/>
<path d="M4320 5420 c0 -5 5 -10 11 -10 5 0 7 5 4 10 -3 6 -8 10 -11 10 -2 0
-4 -4 -4 -10z"/>
<path d="M3002 5200 c0 -14 2 -19 5 -12 2 6 2 18 0 25 -3 6 -5 1 -5 -13z"/>
<path d="M4305 5020 c-3 -5 -1 -10 4 -10 6 0 11 5 11 10 0 6 -2 10 -4 10 -3 0
-8 -4 -11 -10z"/>
<path d="M7245 5020 c-3 -5 -1 -10 4 -10 6 0 11 5 11 10 0 6 -2 10 -4 10 -3 0
-8 -4 -11 -10z"/>
<path d="M3128 5013 c6 -2 18 -2 25 0 6 3 1 5 -13 5 -14 0 -19 -2 -12 -5z"/>
<path d="M3985 5000 c3 -5 8 -10 11 -10 2 0 4 5 4 10 0 6 -5 10 -11 10 -5 0
-7 -4 -4 -10z"/>
<path d="M4481 4994 c0 -11 3 -14 6 -6 3 7 2 16 -1 19 -3 4 -6 -2 -5 -13z"/>
<path d="M4400 4940 c0 -5 5 -10 11 -10 5 0 7 5 4 10 -3 6 -8 10 -11 10 -2 0
-4 -4 -4 -10z"/>
<path d="M4080 4840 c0 -5 5 -10 10 -10 6 0 10 5 10 10 0 6 -4 10 -10 10 -5 0
-10 -4 -10 -10z"/>
<path d="M5991 4834 c0 -11 3 -14 6 -6 3 7 2 16 -1 19 -3 4 -6 -2 -5 -13z"/>
<path d="M3297 4773 c-3 -10 -8 -35 -12 -55 -3 -23 -12 -38 -20 -38 -18 0 -30
-39 -17 -52 7 -7 23 -6 49 5 36 14 38 17 37 59 -1 78 -24 128 -37 81z"/>
<path d="M7001 4715 c-7 -26 -11 -48 -9 -49 2 -1 15 -10 30 -19 15 -9 35 -17
45 -17 14 0 12 6 -12 28 -20 18 -29 34 -27 49 2 12 -1 30 -6 39 -7 13 -12 6
-21 -31z"/>
<path d="M5380 4300 c0 -5 7 -10 16 -10 8 0 12 5 9 10 -3 6 -10 10 -16 10 -5
0 -9 -4 -9 -10z"/>
<path d="M5405 4085 c7 -33 12 -41 21 -33 3 4 -2 19 -11 35 l-16 28 6 -30z"/>
<path d="M3926 3974 c-9 -24 -7 -28 9 -14 17 14 20 30 6 30 -5 0 -12 -7 -15
-16z"/>
<path d="M4642 3785 c0 -16 2 -22 5 -12 2 9 2 23 0 30 -3 6 -5 -1 -5 -18z"/>
<path d="M4551 3683 c2 -35 2 -35 6 -8 3 16 10 33 16 37 8 5 6 8 -5 8 -14 0
-18 -8 -17 -37z"/>
<path d="M4240 3370 c0 -19 3 -21 12 -12 9 9 9 15 0 24 -9 9 -12 7 -12 -12z"/>
<path d="M4330 3231 c0 -11 5 -23 10 -26 6 -4 10 5 10 19 0 14 -4 26 -10 26
-5 0 -10 -9 -10 -19z"/>
<path d="M7124 3063 c4 -16 10 -68 14 -118 10 -105 -3 -212 -43 -355 -15 -52
-29 -105 -32 -117 -3 -13 -9 -20 -14 -17 -5 3 -6 -1 -3 -9 3 -8 -2 -21 -10
-30 -9 -9 -16 -23 -16 -32 0 -15 -26 -81 -37 -95 -2 -2 -9 2 -14 10 -8 12 -9
10 -4 -6 3 -13 0 -28 -10 -37 -8 -9 -15 -23 -15 -31 0 -9 -7 -16 -15 -16 -8 0
-15 -9 -15 -20 0 -11 -4 -20 -10 -20 -5 0 -10 -9 -10 -21 0 -11 -4 -17 -10
-14 -5 3 -10 -1 -10 -9 0 -9 -9 -31 -20 -51 -11 -20 -20 -40 -20 -46 0 -6 -12
-35 -26 -65 -14 -30 -27 -61 -28 -69 -1 -8 -9 -22 -17 -32 -29 -36 -44 -77
-44 -125 0 -44 -2 -48 -20 -43 -84 24 -432 9 -461 -19 -6 -6 -43 -33 -81 -61
-85 -59 -96 -75 -83 -110 24 -64 -3 -163 -58 -213 -28 -26 -33 -35 -22 -42 12
-7 12 -16 2 -55 -15 -55 -16 -98 -2 -90 6 3 10 1 10 -4 0 -6 -7 -11 -15 -11
-8 0 -22 -18 -31 -40 -9 -22 -21 -40 -28 -40 -7 0 -10 -14 -8 -39 2 -21 0 -41
-5 -44 -5 -3 -7 7 -5 24 5 33 -12 39 -28 9 -6 -11 -17 -20 -25 -20 -7 0 -17
-5 -20 -10 -11 -18 13 -37 45 -35 17 1 33 -2 36 -7 8 -13 44 21 44 41 0 9 9
25 21 35 12 10 19 25 16 36 -3 13 0 17 9 13 18 -7 73 37 73 60 2 36 17 15 16
-23 0 -22 -3 -40 -7 -40 -5 0 -8 -18 -8 -40 0 -30 4 -40 16 -40 9 0 22 7 29
16 7 10 32 19 63 22 45 4 52 8 52 26 1 20 2 20 15 -4 8 -14 14 -33 15 -42 0
-10 5 -18 10 -18 6 0 10 -7 10 -16 0 -8 5 -24 10 -35 10 -18 12 -18 50 7 21
14 44 23 49 19 17 -10 92 17 120 43 15 14 33 21 44 18 11 -2 30 0 44 7 19 8
26 8 33 -2 6 -10 10 -9 19 5 10 18 11 18 17 -5 4 -13 17 -43 30 -67 26 -49 25
-83 -6 -177 -11 -33 -20 -68 -20 -78 0 -10 -10 -28 -22 -40 -18 -17 -20 -23
-9 -27 10 -3 8 -9 -10 -22 -19 -15 -21 -21 -11 -33 10 -12 8 -16 -13 -21 -27
-7 -32 -25 -13 -44 9 -9 7 -12 -10 -12 -15 0 -22 -6 -22 -20 0 -11 5 -20 10
-20 6 0 10 -4 10 -10 0 -5 -6 -7 -13 -4 -8 3 -20 -3 -28 -12 -11 -13 -11 -18
-1 -21 16 -6 15 -23 -2 -23 -17 0 -31 -33 -17 -38 16 -5 13 -22 -3 -22 -20 0
-30 -18 -17 -33 7 -9 4 -16 -10 -25 -17 -11 -18 -16 -8 -29 11 -12 10 -17 -4
-24 -20 -12 -22 -35 -4 -42 7 -4 6 -6 -4 -6 -22 -1 -32 -30 -18 -47 9 -11 8
-14 -5 -14 -10 0 -16 -9 -16 -25 0 -21 5 -25 31 -25 27 0 30 2 19 15 -10 12
-10 15 3 15 9 0 22 -7 31 -15 13 -13 220 -15 1745 -15 l1731 0 -2 662 -3 661
-90 49 c-49 26 -97 51 -105 55 -8 4 -33 19 -54 35 -21 15 -45 28 -53 28 -7 0
-13 4 -13 8 0 5 -18 17 -40 27 -22 10 -40 22 -40 27 0 4 -4 8 -10 8 -5 0 -31
13 -58 29 -72 42 -249 132 -397 201 -71 33 -137 64 -146 69 -8 5 -51 23 -95
41 -43 18 -97 40 -119 49 -22 9 -103 47 -179 84 -173 84 -227 107 -391 162
-71 23 -150 52 -175 63 -25 11 -70 30 -100 42 -30 13 -73 39 -96 60 -59 54
-71 59 -194 75 -104 14 -200 43 -274 85 -35 19 -50 57 -77 200 -39 211 -57
259 -122 328 -38 39 -51 41 -43 5z m-244 -1307 c0 -3 -4 -8 -10 -11 -5 -3 -10
-1 -10 4 0 6 5 11 10 11 6 0 10 -2 10 -4z m40 -36 c0 -5 -2 -10 -4 -10 -3 0
-8 5 -11 10 -3 6 -1 10 4 10 6 0 11 -4 11 -10z m-183 -822 c-3 -8 -6 -5 -6 6
-1 11 2 17 5 13 3 -3 4 -12 1 -19z m-117 -538 c13 -8 13 -10 -2 -10 -9 0 -20
5 -23 10 -8 13 5 13 25 0z m-13 -66 c-7 -7 -37 7 -37 17 0 6 9 5 21 -1 11 -7
19 -14 16 -16z m-22 -44 c3 -5 -1 -10 -9 -10 -8 0 -18 5 -21 10 -3 6 1 10 9
10 8 0 18 -4 21 -10z m-31 -46 c17 -6 22 -24 8 -24 -5 0 -17 7 -28 15 -19 15
-8 20 20 9z m2 -66 c3 -5 4 -12 1 -14 -7 -7 -47 15 -47 25 0 11 38 2 46 -11z
m-16 -65 c0 -11 -4 -11 -20 -3 -11 6 -20 15 -20 19 0 5 9 7 20 4 11 -3 20 -12
20 -20z"/>
<path d="M5741 3066 c-11 -13 -11 -20 -3 -28 15 -15 24 -5 20 23 -3 21 -4 21
-17 5z"/>
<path d="M4385 2940 c-3 -5 -1 -10 4 -10 6 0 11 5 11 10 0 6 -2 10 -4 10 -3 0
-8 -4 -11 -10z"/>
<path d="M3540 2868 c-57 -89 -86 -211 -95 -393 -8 -183 -10 -192 -54 -214
-20 -10 -75 -25 -122 -34 -112 -22 -170 -48 -221 -102 -38 -39 -56 -48 -158
-81 -188 -59 -222 -73 -295 -123 -39 -27 -129 -76 -200 -111 -146 -70 -145
-69 -235 -101 -36 -12 -78 -30 -95 -39 -16 -9 -56 -27 -87 -39 -32 -13 -58
-27 -58 -32 0 -5 -5 -9 -11 -9 -12 0 -75 -31 -159 -77 -67 -37 -163 -86 -290
-147 -101 -48 -216 -110 -239 -129 -9 -7 -66 -12 -153 -14 -162 -2 -236 -21
-314 -81 -69 -52 -74 -58 -136 -143 -59 -80 -134 -149 -211 -193 -26 -15 -53
-40 -60 -54 -7 -15 -22 -36 -34 -47 -12 -11 -37 -49 -56 -85 -19 -36 -48 -89
-66 -118 -17 -29 -31 -56 -31 -59 0 -3 -15 -26 -33 -52 -18 -25 -54 -87 -80
-138 -44 -85 -47 -96 -47 -167 l0 -76 2169 0 2169 0 -12 34 c-6 18 -16 40 -22
47 -6 8 -19 37 -29 64 -10 28 -21 52 -25 55 -4 3 -14 32 -23 65 -18 71 -43
143 -57 167 -6 10 -10 44 -10 75 0 45 7 71 31 118 17 33 43 72 58 87 54 55 71
92 71 158 0 28 4 50 10 50 5 0 19 18 30 40 16 32 26 40 48 40 21 0 31 8 45 39
9 20 18 57 18 82 1 24 3 36 6 27 5 -22 22 -23 29 -3 4 8 12 15 20 15 7 0 33
11 58 24 44 23 47 23 118 10 40 -7 83 -16 96 -19 12 -3 22 -1 22 4 0 5 -10 13
-22 16 -39 11 -78 30 -78 36 0 15 -67 37 -94 32 -21 -4 -27 -2 -24 8 4 12 -40
59 -55 59 -7 0 -133 95 -153 115 -8 7 -14 18 -14 24 0 33 -210 31 -378 -5
l-33 -7 3 79 c2 76 1 83 -41 164 -42 82 -68 123 -107 165 -34 36 -73 92 -68
97 2 3 -2 11 -11 18 -8 7 -15 16 -15 21 0 7 -10 31 -61 144 -21 47 -89 267
-99 323 -13 72 -17 333 -6 380 9 37 -3 42 -24 10z m230 -1228 c-10 -7 -11 -10
-2 -10 6 0 12 -4 12 -10 0 -5 -7 -10 -15 -10 -8 0 -15 6 -15 13 0 16 21 39 29
31 3 -3 -1 -9 -9 -14z m7 -66 c-3 -3 -12 -4 -19 -1 -8 3 -5 6 6 6 11 1 17 -2
13 -5z m-17 -114 c0 -5 -5 -10 -11 -10 -5 0 -7 5 -4 10 3 6 8 10 11 10 2 0 4
-4 4 -10z m-3 -66 c-3 -3 -12 -4 -19 -1 -8 3 -5 6 6 6 11 1 17 -2 13 -5z m-10
-60 c-3 -3 -12 -4 -19 -1 -8 3 -5 6 6 6 11 1 17 -2 13 -5z"/>
<path d="M4385 2877 c-4 -10 -5 -21 -1 -24 10 -10 18 4 13 24 -4 17 -4 17 -12
0z"/>
<path d="M5760 2860 c0 -5 19 -10 43 -9 36 1 38 2 17 9 -36 12 -60 12 -60 0z"/>
<path d="M4195 2760 c4 -6 11 -8 16 -5 14 9 11 15 -7 15 -8 0 -12 -5 -9 -10z"/>
<path d="M4225 2700 c-3 -5 -1 -10 4 -10 6 0 11 5 11 10 0 6 -2 10 -4 10 -3 0
-8 -4 -11 -10z"/>
<path d="M5800 875 c-7 -14 -19 -25 -27 -25 -7 0 -13 -4 -13 -9 0 -5 -12 -23
-26 -40 -14 -17 -21 -31 -16 -31 6 0 20 12 31 26 17 21 26 25 55 20 31 -5 36
-3 36 14 0 12 -7 20 -17 20 -13 0 -14 3 -5 12 14 14 16 38 4 38 -5 0 -15 -11
-22 -25z"/>
<path d="M5548 843 c7 -3 16 -2 19 1 4 3 -2 6 -13 5 -11 0 -14 -3 -6 -6z"/>
</g>
</svg>
