<svg width="100%" height="100%" viewBox="0 0 154 154" version="1.1" xmlns="http://www.w3.org/2000/svg"
    xmlns:xlink="http://www.w3.org/1999/xlink" xml:space="preserve" xmlns:serif="http://www.serif.com/" style="
fill-rule: evenodd;
clip-rule: evenodd;
stroke-linejoin: round;
stroke-miterlimit: 2;
">
    <path
        d="M77,0C119.497,0 154,34.503 154,77C154,119.497 119.497,154 77,154C34.503,154 0,119.497 0,77C0,34.503 34.503,0 77,0ZM77.5,5C117.238,5 149.5,37.262 149.5,77C149.5,116.738 117.238,149 77.5,149C37.762,149 5.5,116.738 5.5,77C5.5,37.262 37.762,5 77.5,5Z"
        class="fill-keyword-icon" />
    <g transform="matrix(1.06,0,0,1.06,-5.15003,-4.62003)">
        <path d="M81.375,18.667L42.625,88.667L77.5,88.667L73.625,135.333L112.375,65.333L77.5,65.333L81.375,18.667Z"
            style="fill-rule: nonzero" class="fill-keyword-icon" />
    </g>
</svg>