<svg xmlns="http://www.w3.org/2000/svg" viewBox="0 0 172 172">
    <g fill="none" fill-rule="nonzero" stroke="none" stroke-width="1" stroke-linecap="butt" stroke-linejoin="miter"
        stroke-miterlimit="10" stroke-dasharray="" stroke-dashoffset="0" font-family="none" font-weight="none"
        font-size="none" text-anchor="none" style="mix-blend-mode: normal">
        <path d="M0,172v-172h172v172z" fill="none"></path>
        <g class="fill-keyword-icon">
            <path
                d="M92.88,10.32c-0.91228,0.00018 -1.78715,0.36269 -2.43219,1.00781l-72.24,72.24c-1.34287,1.34342 -1.34287,3.52095 0,4.86437l20.64,20.64c1.34342,1.34287 3.52095,1.34287 4.86437,0l92.88,-92.88c0.98326,-0.98395 1.27725,-2.46318 0.74496,-3.74834c-0.53229,-1.28515 -1.78612,-2.12331 -3.17714,-2.12385zM94.30437,17.2h31.55125l-84.57563,84.57563l-15.77563,-15.77563zM96.32,75.68c-0.91228,0.00018 -1.78715,0.36269 -2.43219,1.00781l-41.28,41.28c-1.34287,1.34342 -1.34287,3.52095 0,4.86437l20.64,20.64l20.64,20.64c0.64504,0.64512 1.5199,1.00764 2.43219,1.00781h41.28c1.39103,-0.00055 2.64485,-0.8387 3.17714,-2.12385c0.53229,-1.28515 0.23831,-2.76439 -0.74495,-3.74834l-38.84781,-38.84781l38.84781,-38.84781c0.98326,-0.98395 1.27725,-2.46318 0.74495,-3.74834c-0.53229,-1.28515 -1.78612,-2.12331 -3.17714,-2.12385zM97.74437,82.56h31.55125l-53.61563,53.61563l-15.77563,-15.77563zM96.32,125.26437l32.97563,32.97563h-31.55125l-17.2,-17.2z">
            </path>
        </g>
    </g>
</svg>