<svg viewBox="0 0 24 24" version="1.1" xmlns="http://www.w3.org/2000/svg">
    <g class="fill-keyword-icon">
        <path d="M10.825,22.495l-8.269,0c-0.578,-0.002 -1.053,-0.477 -1.056,-1.055l-0,-8.033l0.062,0c5.061,0 9.191,4.069 9.263,9.088Zm6.655,0l-3.539,0c-0.073,-6.779 -5.62,-12.265 -12.441,-12.295l-0,-3.416l0.062,-0c8.735,-0 15.856,7.038 15.918,15.711Zm3.964,0l-0.849,0c-0.06,-10.432 -8.599,-18.888 -19.095,-18.919l-0,-1.015c-0,-0.579 0.476,-1.055 1.056,-1.055l6.685,-0c6.025,2.173 10.859,6.81 13.259,12.689l-0,7.255c-0,0.58 -0.476,1.045 -1.056,1.045Zm-5.32,-20.989l5.33,-0c0.002,-0 0.003,-0 0.005,-0c0.571,-0 1.041,0.47 1.041,1.041c0,0.001 0,0.002 -0,0.003l-0,5.175c-0.796,-1.087 -1.79,-2.319 -2.763,-3.292c-1.098,-1.086 -2.38,-2.069 -3.612,-2.928l-0.001,0.001Z" style="fill-rule:nonzero;"/>
    </g>
</svg>